<svg version="1.2" baseProfile="tiny-ps" xmlns="http://www.w3.org/2000/svg" viewBox="0 0 988 635" width="988" height="635">
	<title>kt</title>
	<style>
		tspan { white-space:pre }
		.shp0 { fill: #212143 } 
		.shp1 { fill: #ffffff } 
		.shp2 { fill: none;stroke: #ffffff;stroke-width: 20 } 
	</style>
	<path id="Shape 2 copy 2" class="shp0" d="M21 23L967 23L967 468L21 468L21 23Z" />
	<path id="Shape 2 copy" class="shp1" d="M21 23L414 23L414 468L21 468L21 23Z" />
	<path id="Shape 1" class="shp2" d="M15 15L973 15L973 474L15 474L15 15Z" />
	<path id="k" fill="#212143" aria-label="k"  d="M209 314.8L135 389.6Q130.6 394.4 124.2 394.4Q117.8 394.4 113 389.6Q108.2 384.8 108.2 378L108.2 110Q108.2 103.2 113 98.4Q117.8 93.6 124.6 93.6Q131.4 93.6 136.2 98.4Q141 103.2 141 109.6L141 338.8L281.8 198.4Q285.8 193.6 292.6 193.6Q299 193.6 303.4 198.4Q308.2 202.8 308.2 209.2Q308.2 216 303.4 220L231 292.8L303.4 365.6Q308.2 370 308.2 376.4Q308.2 383.2 303.4 387.2Q299 392 292.6 392Q285.8 392 281.8 387.2L209 314.8Z" />
	<path id="Kazune Takeda" fill="#ffffff" aria-label="Kazune Takeda"  d="M44.58 595.91L33.42 605.79L29.09 629.58Q28.72 631.66 26.87 633.22Q25.03 634.78 22.95 634.78Q20.87 634.78 19.59 633.22Q18.32 631.66 18.72 629.45L33.38 548.85Q33.79 546.64 35.63 545.08Q37.47 543.52 39.68 543.52Q41.89 543.52 43.17 545.08Q44.45 546.64 44.07 548.72L36.43 590.71L90.49 545.08Q92.07 543.52 94.28 543.52Q96.36 543.52 97.51 545.08Q98.81 546.51 98.43 548.59Q98.03 550.8 96.23 552.1L53.03 588.76L82.89 625.42Q84.19 626.85 83.81 628.93Q83.41 631.14 81.61 632.44Q79.9 634 77.82 634Q75.61 634 74.59 632.44L44.58 595.91ZM147.13 625.29L146.47 626.07Q141.45 630.1 135.17 632.44Q129.03 634.78 122.66 634.78Q116.03 634.78 110.52 632.18Q105.25 629.71 101.53 625.16Q97.91 620.74 96.4 614.76Q94.97 609.04 96.25 602.02Q97.48 595.26 101.17 589.28Q104.86 583.3 110.08 578.88Q115.3 574.46 121.76 571.86Q128.21 569.26 134.97 569.26Q141.99 569.26 147.26 571.73Q152.77 574.33 156.38 578.75Q160.11 583.3 161.53 589.02Q163.05 595 161.84 601.63L156.87 628.93Q156.49 631.01 154.65 632.57Q152.81 634.13 150.73 634.13Q148.65 634.13 147.37 632.57Q146.09 631.01 146.5 628.8L147.13 625.29ZM124.63 624.64L124.37 624.64Q128.66 624.64 133.28 622.82Q137.62 621.13 141.16 618.14Q144.54 615.28 147.11 611.12Q149.71 606.83 150.49 602.54Q151.35 597.86 150.37 593.96Q149.28 589.93 146.96 586.94Q144.49 584.08 140.8 582.26Q136.84 580.44 132.55 580.44Q127.87 580.44 123.66 582.13Q119.17 583.95 115.79 586.81Q112.25 589.8 109.83 593.83Q107.43 597.73 106.58 602.41Q105.8 606.7 106.84 610.99Q107.77 615.15 110.24 618.01Q112.56 621 116.41 622.69Q118.32 623.6 120.31 624.12Q122.42 624.64 124.63 624.64ZM172.85 634L172.46 634Q171.42 634 170.58 633.61Q169.61 633.22 169.23 632.44Q167.91 631.14 168.27 629.19Q168.64 627.11 170.46 625.68L224.42 579.92L182.43 579.92Q180.35 579.92 179.07 578.36Q177.8 576.8 178.2 574.59Q178.6 572.38 180.45 570.82Q182.29 569.26 184.5 569.26L239.1 569.26Q241.18 569.26 242.46 570.82Q243.76 572.25 243.38 574.33Q242.98 576.54 241.18 577.84L187.22 623.6L229.21 623.6Q231.42 623.6 232.7 625.16Q233.97 626.72 233.6 628.8Q233.22 630.88 231.37 632.44Q229.53 634 227.45 634L172.85 634ZM303.13 625.29L302.47 626.07Q297.45 630.1 291.17 632.44Q285.03 634.78 278.66 634.78Q272.03 634.78 266.52 632.18Q261.25 629.71 257.53 625.16Q253.91 620.74 252.4 614.76Q250.97 609.04 252.25 602.02L257.22 574.72Q257.62 572.51 259.46 570.95Q261.31 569.39 263.52 569.39Q265.73 569.39 267 570.95Q268.28 572.51 267.9 574.59L262.93 601.89Q262.15 606.18 263.19 610.47Q264.12 614.63 266.59 617.49Q268.91 620.48 272.76 622.17Q276.36 623.86 281.04 623.86Q285.33 623.86 289.95 622.04Q294.28 620.35 297.82 617.36Q301.2 614.5 303.78 610.34Q306.38 606.05 307.16 601.76L312.12 574.46Q312.53 572.25 314.37 570.69Q316.21 569.13 318.42 569.13Q320.63 569.13 321.91 570.69Q323.19 572.25 322.81 574.33L312.87 628.93Q312.49 631.01 310.65 632.57Q308.81 634.13 306.73 634.13Q304.65 634.13 303.37 632.57Q302.09 631.01 302.5 628.8L303.13 625.29ZM386.76 601.5L386.76 601.5Q387.07 599.81 387.11 597.47Q387.14 595.13 386.75 593.7Q386.22 591.62 385.54 589.67Q384.98 587.72 383.81 586.29Q382.64 584.86 380.93 583.56Q379.37 582.13 377.45 581.22Q375.54 580.31 372.68 580.31Q369.97 580.18 367.76 580.18Q363.08 580.18 358.88 581.87Q354.38 583.69 351 586.55Q347.47 589.54 345.05 593.57Q342.65 597.47 341.8 602.15L336.83 629.45Q336.45 631.53 334.61 633.09Q332.76 634.65 330.68 634.65Q328.6 634.65 327.33 633.09Q326.05 631.53 326.45 629.32L336.39 574.72Q336.79 572.51 338.63 570.95Q340.48 569.39 342.69 569.39Q344.9 569.39 346.17 570.95Q347.45 572.51 347.07 574.59L346.43 578.1Q351.87 573.94 357.75 571.6Q363.77 569.26 370.27 569.26Q377.29 569.26 382.56 571.73Q388.07 574.33 391.68 578.75Q395.41 583.3 396.83 589.02Q398.35 595 397.14 601.63L392.17 628.93Q391.79 631.01 389.95 632.57Q388.11 634.13 386.03 634.13Q383.95 634.13 382.67 632.57Q381.39 631.01 381.8 628.8L386.76 601.5ZM418.97 606.7L418.19 606.7Q418.38 608.52 418.65 610.6Q419.05 612.68 419.81 614.24Q420.56 615.8 421.34 617.23Q422.28 618.53 423.52 619.57Q426.1 621.78 429.25 623.08Q432.39 624.38 436.42 624.38Q440.71 624.38 445.33 622.56Q449.67 620.87 453.2 617.88Q455.15 616.45 457.23 616.45Q459.31 616.45 460.74 617.88Q461.87 619.57 461.51 621.52Q461.16 623.47 459.42 625.16Q454.19 629.58 447.74 632.18Q441.57 634.65 434.68 634.65Q428.05 634.65 422.54 632.05Q417.27 629.58 413.55 625.03Q409.94 620.61 408.42 614.63Q407 608.91 408.27 601.89Q409.5 595.13 413.19 589.15Q416.88 583.17 422.1 578.75Q427.33 574.33 433.78 571.73Q440.23 569.13 446.99 569.13Q454.01 569.13 459.28 571.6Q464.79 574.2 468.41 578.62Q472.13 583.17 473.56 588.89Q475.07 594.87 473.86 601.5Q473.49 603.58 471.64 605.14Q469.8 606.7 467.72 606.7L418.97 606.7ZM462.84 597.08L462.58 597.08Q462.22 593.31 460.95 590.32Q459.46 587.07 457.24 584.99Q454.89 582.91 451.64 581.48Q448.49 580.18 444.46 580.18Q440.43 580.18 436.82 581.48Q433.2 582.78 429.81 584.99Q426.72 586.94 424.03 590.32Q421.66 593.31 419.94 597.08L462.84 597.08ZM569.72 553.4L547.36 553.4Q545.15 553.4 544.13 551.84Q543.62 551.06 543.37 550.28Q543.13 549.5 543.32 548.46Q543.69 546.38 545.43 544.69Q547.02 543.13 549.23 543.13L603.96 543.13Q606.17 543.13 607.44 544.69Q608.72 546.25 608.34 548.33Q607.96 550.41 606.12 551.97Q604.27 553.53 602.19 553.53L580.09 553.53L566.37 628.93Q565.99 631.01 564.15 632.57Q562.31 634.13 560.23 634.13Q558.15 634.13 556.87 632.57Q555.59 631.01 556 628.8L569.72 553.4ZM648.93 625.29L648.27 626.07Q643.25 630.1 636.97 632.44Q630.83 634.78 624.46 634.78Q617.83 634.78 612.32 632.18Q607.05 629.71 603.33 625.16Q599.71 620.74 598.2 614.76Q596.77 609.04 598.05 602.02Q599.28 595.26 602.97 589.28Q606.66 583.3 611.88 578.88Q617.1 574.46 623.56 571.86Q630.01 569.26 636.77 569.26Q643.79 569.26 649.06 571.73Q654.57 574.33 658.18 578.75Q661.91 583.3 663.33 589.02Q664.85 595 663.64 601.63L658.67 628.93Q658.29 631.01 656.45 632.57Q654.61 634.13 652.53 634.13Q650.45 634.13 649.17 632.57Q647.89 631.01 648.3 628.8L648.93 625.29ZM626.43 624.64L626.17 624.64Q630.46 624.64 635.08 622.82Q639.42 621.13 642.96 618.14Q646.34 615.28 648.91 611.12Q651.51 606.83 652.29 602.54Q653.15 597.86 652.17 593.96Q651.08 589.93 648.76 586.94Q646.29 584.08 642.6 582.26Q638.64 580.44 634.35 580.44Q629.67 580.44 625.46 582.13Q620.97 583.95 617.59 586.81Q614.05 589.8 611.63 593.83Q609.23 597.73 608.38 602.41Q607.6 606.7 608.64 610.99Q609.57 615.15 612.04 618.01Q614.36 621 618.21 622.69Q620.12 623.6 622.11 624.12Q624.22 624.64 626.43 624.64ZM709.12 608.91L680.64 633.22Q678.93 634.78 676.85 634.78Q674.77 634.78 673.49 633.22Q672.22 631.66 672.62 629.45L688.47 542.35Q688.87 540.14 690.71 538.58Q692.56 537.02 694.77 537.02Q696.98 537.02 698.25 538.58Q699.53 540.14 699.15 542.22L685.6 616.71L739.66 571.08Q741.24 569.52 743.45 569.52Q745.53 569.52 746.68 571.08Q747.98 572.51 747.6 574.59Q747.2 576.8 745.4 578.1L717.57 601.76L736.79 625.42Q738.09 626.85 737.71 628.93Q737.31 631.14 735.51 632.44Q733.8 634 731.72 634Q729.51 634 728.49 632.44L709.12 608.91ZM763.47 606.7L762.69 606.7Q762.88 608.52 763.15 610.6Q763.55 612.68 764.31 614.24Q765.06 615.8 765.84 617.23Q766.78 618.53 768.02 619.57Q770.6 621.78 773.75 623.08Q776.89 624.38 780.92 624.38Q785.21 624.38 789.83 622.56Q794.17 620.87 797.7 617.88Q799.65 616.45 801.73 616.45Q803.81 616.45 805.24 617.88Q806.37 619.57 806.01 621.52Q805.66 623.47 803.92 625.16Q798.69 629.58 792.24 632.18Q786.07 634.65 779.18 634.65Q772.55 634.65 767.04 632.05Q761.77 629.58 758.05 625.03Q754.44 620.61 752.92 614.63Q751.5 608.91 752.77 601.89Q754 595.13 757.69 589.15Q761.38 583.17 766.6 578.75Q771.83 574.33 778.28 571.73Q784.73 569.13 791.49 569.13Q798.51 569.13 803.78 571.6Q809.29 574.2 812.91 578.62Q816.63 583.17 818.06 588.89Q819.57 594.87 818.36 601.5Q817.99 603.58 816.14 605.14Q814.3 606.7 812.22 606.7L763.47 606.7ZM807.34 597.08L807.08 597.08Q806.72 593.31 805.45 590.32Q803.96 587.07 801.74 584.99Q799.39 582.91 796.14 581.48Q792.99 580.18 788.96 580.18Q784.93 580.18 781.32 581.48Q777.7 582.78 774.31 584.99Q771.22 586.94 768.53 590.32Q766.16 593.31 764.44 597.08L807.34 597.08ZM888.15 628.8L888 629.58Q887.63 631.66 885.78 633.22Q883.94 634.78 881.86 634.78Q879.78 634.78 878.5 633.22Q877.23 631.66 877.63 629.45L878.27 625.94Q873.24 629.97 866.97 632.31Q860.82 634.65 854.45 634.65Q847.82 634.65 842.31 632.05Q837.04 629.58 833.32 625.03Q829.71 620.61 828.19 614.63Q826.77 608.91 828.04 601.89Q829.27 595.13 832.96 589.15Q836.65 583.17 841.87 578.75Q847.1 574.33 853.55 571.73Q860 569.13 866.76 569.13Q873.13 569.13 878.43 571.47Q883.85 573.81 887.41 577.84L893.96 541.83Q894.36 539.62 896.21 538.06Q898.05 536.5 899.87 536.5Q902.21 536.5 903.28 537.8Q904.45 539.23 904 541.7L893.11 601.5L888.15 628.8ZM856.27 624.64L856.14 624.64Q860.43 624.64 865.05 622.82Q869.39 621.13 872.93 618.14Q876.31 615.28 878.88 611.12Q881.48 606.83 882.26 602.54Q883.12 597.86 882.14 593.96Q881.05 589.93 878.73 586.94Q876.26 584.08 872.57 582.26Q868.61 580.44 864.32 580.44Q859.64 580.44 855.43 582.13Q850.94 583.95 847.56 586.81Q844.02 589.8 841.6 593.83Q839.2 597.73 838.35 602.41Q837.57 606.7 838.61 610.99Q839.54 615.15 842.01 618.01Q844.33 621 848.18 622.69Q850.09 623.6 852.08 624.12Q854.06 624.64 856.27 624.64ZM955.73 625.29L955.07 626.07Q950.05 630.1 943.77 632.44Q937.63 634.78 931.26 634.78Q924.63 634.78 919.12 632.18Q913.85 629.71 910.13 625.16Q906.51 620.74 905 614.76Q903.57 609.04 904.85 602.02Q906.08 595.26 909.77 589.28Q913.46 583.3 918.68 578.88Q923.9 574.46 930.36 571.86Q936.81 569.26 943.57 569.26Q950.59 569.26 955.86 571.73Q961.37 574.33 964.98 578.75Q968.71 583.3 970.13 589.02Q971.65 595 970.44 601.63L965.47 628.93Q965.09 631.01 963.25 632.57Q961.41 634.13 959.33 634.13Q957.25 634.13 955.97 632.57Q954.69 631.01 955.1 628.8L955.73 625.29ZM933.23 624.64L932.97 624.64Q937.26 624.64 941.88 622.82Q946.22 621.13 949.76 618.14Q953.14 615.28 955.71 611.12Q958.31 606.83 959.09 602.54Q959.95 597.86 958.97 593.96Q957.88 589.93 955.56 586.94Q953.09 584.08 949.4 582.26Q945.44 580.44 941.15 580.44Q936.47 580.44 932.26 582.13Q927.77 583.95 924.39 586.81Q920.85 589.8 918.43 593.83Q916.03 597.73 915.18 602.41Q914.4 606.7 915.44 610.99Q916.37 615.15 918.84 618.01Q921.16 621 925.01 622.69Q926.92 623.6 928.91 624.12Q931.02 624.64 933.23 624.64Z" />
	<path id="kt" fill="#ffffff" aria-label="kt"  d="M614 314.8L540 389.6Q535.6 394.4 529.2 394.4Q522.8 394.4 518 389.6Q513.2 384.8 513.2 378L513.2 110Q513.2 103.2 518 98.4Q522.8 93.6 529.6 93.6Q536.4 93.6 541.2 98.4Q546 103.2 546 109.6L546 338.8L686.8 198.4Q690.8 193.6 697.6 193.6Q704 193.6 708.4 198.4Q713.2 202.8 713.2 209.2Q713.2 216 708.4 220L636 292.8L708.4 365.6Q713.2 370 713.2 376.4Q713.2 383.2 708.4 387.2Q704 392 697.6 392Q690.8 392 686.8 387.2L614 314.8ZM790 332L790 332.8Q790 344.8 797.6 352.4Q806 360.8 817.6 360.8Q823.2 360.8 827.2 358.8Q831.6 356.8 836 352.4Q840.4 348 846.8 348Q853.2 348 858.4 352.4Q863.2 357.2 863.2 363.6Q863.2 370 858.4 374.8Q850.4 382.8 839.6 387.6Q828.8 392.4 816.4 392.4Q804 392.4 793.2 387.6Q782.4 382.8 774.4 374.8Q766.4 366.8 761.6 356Q756.8 345.2 756.8 332.4L756.8 128.4Q756.8 121.6 761.6 116.8Q766.4 112 773.2 112Q780 112 784.8 116.8Q789.6 121.6 789.6 128L789.6 192L833.6 192Q840.4 192 845.2 196.8Q850 201.6 850 208Q850 214.4 845.2 219.2Q840.4 224 834 224L790 224L790 332Z" />
</svg>